<svg xmlns="http://www.w3.org/2000/svg" viewBox="0 0 256 256"><path fill="#8d65c5" d="M15.4 47.5v169.8l8.7 14.6 14.6 8.7h178.7l14.5-8.7 8.7-14.6V38.7l-8.7-14.6-14.5-8.7H38.7l-14.6 8.7-8.7 14.6Z"/><path fill="#fff" d="M115.1 61.9h40.3l24.1 10.2 18.3 18.1 10.4 23.7v27.4l-10.4 23.9-18.3 18.1-24.1 10.1h-45l-6.5-6.5V68.4l6.5-6.5Z"/><path fill="#fff" d="M127.1 171.3h26.8l20.2-11.8 12-19.9v-23.9l-12-19.9L153.9 84h-27.8v87.3ZM85.9 73.7l.1 107.8v4.6l-6.4 6.4h-9.2l-6.5-6.4-.1-4.6-.1-107.6v-4.6l6.5-6.6h9.2l6.5 6.5Z"/></svg>