<svg xmlns="http://www.w3.org/2000/svg" viewBox="0 0 256 256"><path fill="#f9c23c" d="m19.9 95.9-3.2-3.2.5-8 5.4-5.9h42.1l15.7 31.3-15.7 30.6Zm216.3 0 3.1-3.2-.4-8-5.4-5.9h-42.1l-11.9 31.7 11.9 30.2Z"/><path fill="#fcd53f" d="M127.9 15.4H141l23 9.6 17.5 17.3 9.9 22.7v85.1H64.6V65l9.8-22.7L91.9 25l23-9.6Z"/><path fill="#1c1c1c" d="M95.2 61.5V59l-3.6-3.7h-5.1L82.9 59v5.1l3.6 3.6h5.1l3.6-3.6Zm78.2 0V59l-3.6-3.7h-5.1l-3.6 3.7v5.1l3.6 3.6h5.1l3.6-3.6Z"/><path fill="#ff822d" d="M143.8 70.8v-6.5l-9.4-9.3h-13.1l-9.2 9.3v6.5Z"/><path fill="#d3d3d3" d="m229.4 139.4-.1.2v21l-15.8 36.6-27.8 27.8-36.6 15.6h-41.9l-36.7-15.7-27.8-27.7L27 160.4v-20.8l27.8-27.9L82.2 139l46-46 45.9 46 27.4-27.4Z"/></svg>