<svg xmlns="http://www.w3.org/2000/svg" viewBox="0 0 256 256"><path fill="#ffb02e" d="M69.8 58.4v-5.5l-7.1-12.4L53 29.7 44.2 23l-1.6.1h-1.7l-8.8 6.8-9.7 10.7-7 12.3v12.9l7.3 11.9 12.4 7.2h15l12.4-7.2 7.3-11.9Zm170.8 0v-5.5l-7-12.4-9.8-10.8-8.6-6.7-1.6.1h-1.8l-8.8 6.8-9.7 10.7-7 12.3v12.9l7.3 11.9 12.4 7.2h15l12.3-7.2 7.3-11.9Zm-66.3 41.8v6.8l-9.2 9.4H90.5l-9.3-9.4V82.4l.7-9.7 13.7-11 8.3-4.8 5.9-3.4 11.3-7.6 3.6-5.5.9-1.7h3.7l1.2 1.7 3.5 5.4 11.5 7.7 6 3.3 5.8 3.3 10.6 7.2 6.7 9.7v7.1Z"/><path fill="#9b9b9b" d="M190.3 77.8v-3.1l4.4-4.4h37.6l4.6 4.5V233H229l-19.4-7.9-19.4 7.7-38.9.2-23.3-11.8-23.3 11.8H65.9l-19.5-7.9L27 233h-7.7V74.1l3.5-3.4h39.9l3.4 3.4v61.4l4.4 4.4h14.3l4.5-4.5v-12.8h77.6v12.8l4.5 4.4h14.4l4.5-4.4v-3.1Z"/><path fill="#6d4534" d="M19.7 77.6h-1.6l-2.3-2.3v-3.2l2.3-2.1H67l2.3 2.1v3.2L67 77.6h-1.6Zm216.7 0h1.7l2.2-2.3v-3.2l-2.2-2.1h-49l-2.1 2.1v3.2l2.1 2.3h1.6Zm-65.2 46.6h3.4v-7.8H81.3v7.8h3.4Z"/><path fill="#212121" d="M50.3 132v-20.2l-2.8-6.1-3.7-4.7h-2.6l-3.6 4.6-2.8 6.2v2.1l-.1 18.1Zm170.8 0 .1-18.1v-2.1l-2.8-6.1-3.6-4.7h-2.7l-3.7 4.6-2.8 6.2V132Zm-116.4 54.3-.1 46.6h46.5v-50.5l-5-10.5-7.5-9.9-8-6.6-2.9-.1-2.9.1-7.8 6.5-7.4 9.9-4.9 10.4ZM66 209.7l-.2 23.2H27.1l-.1-23.4v-3.9l2.8-10.6 5.2-9.9 7.1-6.5 4.2.1 4.4-.1 7.2 6.6 5.3 9.9 2.8 10.6Zm143.4-31-4.2-.1-7.1 6.5-5.1 9.9-2.8 10.6v3.9l-.1 23.4h38.7l.2-23.2v-4l-2.8-10.6-5.2-9.9-7.2-6.6Z"/></svg>