<svg xmlns="http://www.w3.org/2000/svg" viewBox="0 0 256 256"><path fill="#9b9b9b" d="M104.2 238.1v2.2h-8.1l-.3-1.6-11-37.3-4.6-16.5v-32.7h24Zm64.3-51.7 7.8 5.8v15.9l-3.9 5.3-17.9 23.9-.7.8 1 2.2h13.4l1.7-2 25.9-32.5 4.5-5.7v-39.9h-56.1v8Z"/><path fill="#636363" d="M65.1 18.2h-8.3l-15.2 5.9-6.1 4.9-1.4 1.2-.1 3.7 1.4 1.2 21.7 21.1.9-.1 1.7-.2.8-.2 3.1 3.1 2.6-2.2 3.8-.2 2.9-.1 4.9 3.3 1.2 2.6 1.5 2.4-.2 2.7-.1 2.4-.5 4.8-.4 2.5-.4 5.5-1.4 11.2-.9 5.6h43.7V53.2l-15-16.1-1.6-1.8-2-1.8-6.8-6.3-20.3-9Zm157.4 81.4-.1 1-.1 2.4v1.2l7.6 5 7.6-8.1 3.1-15.6-3.3-12.4-2-3.3-1.2-1.8-6.8-7.3-8.5-8.3-8.2-7.4-5.3-4.9-3.3 5.6v9.9l3.2 7.2 1.3 1.6 8.5 10.9 6.8 12.5 1 7.8Z"/><path fill="#d3d3d3" d="M104.2 96.1V60.3L93.7 40.2l-18-13.5-11.4-2-12.4-8.3-1.3-.7-2.5 1.5v12.2l-.2.3-5.7 6.2-8.2 8.7-8.4 9.1-3 3.4 1.5 11 10.1 4.7L56.1 64v75.2L67 157.4l18.1 10.8h11.1V185l4.7 16.4 10.9 37.3.4 1.6h8.1v-72.1h64l4.4 3.1 20.1 15.1 7.6 5.8v15.9l-3.8 5.3-17.9 23.9-.8.8 1 2.2h13.4l1.6-2 26-32.5 4.4-5.7v-75l-10.8-18.2-18.2-10.8h-11Z"/><path fill="#636363" d="M68.5 19.7h-1.7l-2.3 2.4v15l-2 2-1.2 1.2v3.2l1.2 1.2 1.2 1.3H67l1.1-1.3 4.4-4.3V22.1l-2.4-2.4ZM110 80.2H64.5l-6.7 9-1.7 2.1v-12l8.5-7.2h45.2l.1 1 .1 1.9v1Zm-27.3 112-.5-1.9-.6-4-.3-2.1h38.9v8Zm21.5 20.4 1.1 3.9h14.9v-8H87l2.3 8h14.9Zm65.2 4.8-4.9 6.4 9.4 9.3 5-6.3Zm6.8-17.3H199l1.3-3.3v-4.6h-26.5l2 3.5Zm15.9-104-23.4 29.5-7.3 9.1h-52.2l-7.5-4.9-1.9-4.2-10.2-23.1-1-2.1 1.3-2.2 1.4-2.1h12.9l3.9-.8 2.3-.6h.2l2.3-.5 3.9-.9-5.4-.7-3.6-4.5H87l-3.8 5.7-3.6 5.7 2.6 6.2 10.4 23.1 2.7 6.4 11.6 7.5h58.3l9.7-12.2 27.4-34.3-.7-.1h-1.3Z"/><path fill="#636363" d="M164.4 96.1h10.4l-18.8 23-4.6 5.6H138l-8.9-8.9V96.1h8v16.5l4.2 4.1h6.4l2.1-2.5Zm-.9 72.1h10.2l49.8-64.6-3-2.2-4-1.9Zm76.8-17.9v8.1h-26.9l-3-6.1-3-6.2 4.1-5.5 21.1-28 2.5 3.3 1.9 4.3-19.1 25.2-.8 1 .3 1.8.1.4.3.3 1.3 1.4h1.2Zm-1.4 50.2 1.4-3.6v-5.6l-24 10.1v5.4l-2.4 4.2Zm-17.9 24-6.5 8h-16.4l6-8ZM83.3 133.1l-7.1-18.5-2.5-6.4H56.1v8h12.1l.6 1.3 7.1 18.4 1.1 3-1.8 2.8-1.9 2.8H59.6l1.9 4.1 2.8 3.9h13.3l4.2-6.2 4.2-6.2Zm2.9-104.5v16l2.8 2.8h19.6l2.3 2.3v3.4l-2.3 2.3H85.7L78.2 48V27l2.4-2.4h3.3l2.3 2.4Zm154.1 146v8h-36.8l-10.6-8ZM18.2 61.7 15.4 65l1 4.2.8 4.1 7.2 3.4 3.8-1.5 6.2-2.5-11.7-15.8-2 2.2z"/><path fill="#212121" d="M44.1 56.2h4v-12h-8v12Z"/></svg>